HIERARCHY
ROOT Hips
{
	OFFSET -0.001795 -0.223333 0.028219
	CHANNELS 6 Xposition Yposition Zposition Zrotation Yrotation Xrotation 
	JOINT LeftUpLeg
	{
		OFFSET 0.069520 -0.091406 -0.006815
		CHANNELS 3 Zrotation Yrotation Xrotation
		JOINT LeftLeg
		{
			OFFSET 0.034277 -0.375199 -0.004496
			CHANNELS 3 Zrotation Yrotation Xrotation
			JOINT LeftFoot
			{
				OFFSET -0.013596 -0.397961 -0.043693
				CHANNELS 3 Zrotation Yrotation Xrotation
				JOINT LeftToe
				{
					OFFSET 0.026358 -0.055791 0.119288
					CHANNELS 3 Zrotation Yrotation Xrotation
					End Site
					{
						OFFSET 0.000000 0.000000 0.000000
					}
				}
			}
		}
	}
	JOINT RightUpLeg
	{
		OFFSET -0.067670 -0.090522 -0.004320
		CHANNELS 3 Zrotation Yrotation Xrotation
		JOINT RightLeg
		{
			OFFSET -0.038290 -0.382569 -0.008850
			CHANNELS 3 Zrotation Yrotation Xrotation
			JOINT RightFoot
			{
				OFFSET 0.015774 -0.398415 -0.042312
				CHANNELS 3 Zrotation Yrotation Xrotation
				JOINT RightToe
				{
					OFFSET -0.025372 -0.048144 0.123348
					CHANNELS 3 Zrotation Yrotation Xrotation
					End Site
					{
						OFFSET 0.000000 0.000000 0.000000
					}
				}
			}
		}
	}
	JOINT Spine
	{
		OFFSET -0.002533 0.108963 -0.026696
		CHANNELS 3 Zrotation Yrotation Xrotation
		JOINT Spine1
		{
			OFFSET 0.005487 0.135180 0.001092
			CHANNELS 3 Zrotation Yrotation Xrotation
			JOINT Spine2
			{
				OFFSET 0.001457 0.052922 0.025425
				CHANNELS 3 Zrotation Yrotation Xrotation
				JOINT Neck
				{
					OFFSET -0.002778 0.213870 -0.042857
					CHANNELS 3 Zrotation Yrotation Xrotation
					JOINT Head
					{
						OFFSET 0.005152 0.064970 0.051349
						CHANNELS 3 Zrotation Yrotation Xrotation
						End Site
						{
							OFFSET 0.000000 0.000000 0.000000
						}
					}
				}
				JOINT LeftShoulder
				{
					OFFSET 0.078845 0.121749 -0.034090
					CHANNELS 3 Zrotation Yrotation Xrotation
					JOINT LeftArm
					{
						OFFSET 0.090977 0.030469 -0.008868
						CHANNELS 3 Zrotation Yrotation Xrotation
						JOINT LeftForeArm
						{
							OFFSET 0.259612 -0.012772 -0.027456
							CHANNELS 3 Zrotation Yrotation Xrotation
							JOINT LeftHand
							{
								OFFSET 0.249234 0.008986 -0.001171
								CHANNELS 3 Zrotation Yrotation Xrotation
								End Site
								{
									OFFSET 0.000000 0.000000 0.000000
								}
							}
						}
					}
				}
				JOINT RightShoulder
				{
					OFFSET -0.081759 0.118833 -0.038615
					CHANNELS 3 Zrotation Yrotation Xrotation
					JOINT RightArm
					{
						OFFSET -0.096012 0.032551 -0.009143
						CHANNELS 3 Zrotation Yrotation Xrotation
						JOINT RightForeArm
						{
							OFFSET -0.253742 -0.013329 -0.021401
							CHANNELS 3 Zrotation Yrotation Xrotation
							JOINT RightHand
							{
								OFFSET -0.255298 0.007772 -0.005559
								CHANNELS 3 Zrotation Yrotation Xrotation
								End Site
								{
									OFFSET 0.000000 0.000000 0.000000
								}
							}
						}
					}
				}
			}
		}
	}
}
MOTION
Frames: 12
Frame Time: 0.050000
0.000000 0.937703 0.000000 0.405239 18.745563 -3.153716 5.953106 -2.188361 -25.349713 -8.723128 -1.235744 45.471039 8.871517 19.033208 5.859926 0.000000 0.000000 0.000000 7.966116 0.113753 -0.538211 -1.032454 0.215140 16.545126 -2.395590 -5.956089 -6.096206 0.000000 0.000000 0.000000 -2.478117 -0.454889 11.884494 1.828763 0.517832 -22.741408 2.537152 -0.520305 27.413693 4.159687 -0.584176 -15.128793 0.000000 0.000000 0.000000 -20.080348 3.681001 -6.126413 -54.619514 6.097490 -11.312992 -17.426644 -30.907151 5.634469 0.000000 0.000000 0.000000 8.681251 2.555783 1.967102 61.710002 8.729105 -3.093880 4.610804 38.821905 4.770915 0.000000 0.000000 0.000000 
0.018458 0.935892 0.055520 0.596697 18.187937 -2.826403 7.207390 -2.075607 -26.425557 -7.230037 -0.160745 27.474488 4.309775 13.050861 11.017464 0.000000 0.000000 0.000000 8.220907 -0.538753 2.868065 -2.954595 0.796590 15.812581 -0.427368 -0.238510 -4.175137 0.000000 0.000000 0.000000 -2.889144 -0.413377 11.896015 1.259977 0.636118 -25.604809 3.484024 -0.877638 28.510351 3.435997 0.193999 -17.301316 0.000000 0.000000 0.000000 -18.537723 5.538074 -6.549582 -55.976527 9.080012 -13.244257 -20.111340 -29.750350 6.200755 0.000000 0.000000 0.000000 5.820905 2.410457 1.549382 63.874446 8.807265 -2.841578 5.954163 40.918361 5.766554 0.000000 0.000000 0.000000 
0.037873 0.927201 0.112707 -0.297501 14.736421 -3.631717 5.816431 -1.978027 -25.338615 -1.445877 -0.443160 12.583126 0.939137 7.783432 11.674529 0.000000 0.000000 0.000000 7.588933 -1.403195 7.397123 -1.418447 0.511123 16.180012 0.376539 3.518147 -6.562999 0.000000 0.000000 0.000000 -2.312271 -0.383288 10.954471 1.779124 0.451431 -25.416319 3.264393 1.060957 30.519867 2.631461 0.843559 -17.662563 0.000000 0.000000 0.000000 -18.262814 6.760042 -7.053665 -55.186951 10.372445 -13.771337 -19.393980 -28.858461 5.856861 0.000000 0.000000 0.000000 4.542579 3.938819 2.001648 63.652205 9.914455 -2.253094 5.279472 43.421837 5.972095 0.000000 0.000000 0.000000 
0.058453 0.918060 0.172021 0.127990 11.598414 -4.553713 5.420490 -1.503363 -21.582500 -1.446589 0.091744 1.318867 -2.459645 2.592244 13.149073 0.000000 0.000000 0.000000 6.854299 -2.405819 12.914895 -3.776270 1.269238 15.833537 1.101204 6.649606 -7.086765 0.000000 0.000000 0.000000 -2.916117 -0.301719 10.804362 1.276317 0.515530 -24.894912 4.484937 1.744095 31.088078 2.602063 0.633401 -17.257980 0.000000 0.000000 0.000000 -18.229405 7.875673 -7.291012 -56.815088 11.932400 -15.042853 -17.065022 -28.652976 5.388038 0.000000 0.000000 0.000000 3.976674 5.299180 2.383074 62.705823 11.027569 -1.857119 4.686814 44.083618 5.621148 0.000000 0.000000 0.000000 
0.080722 0.908243 0.233477 0.380203 10.230590 -4.858478 4.426681 -1.611619 -21.643016 -1.421154 0.021243 3.749172 -3.778781 1.069310 14.837070 0.000000 0.000000 0.000000 5.611653 -2.868349 16.293491 -5.560806 1.889452 17.744410 1.786654 9.103045 -6.995634 0.000000 0.000000 0.000000 -4.025574 -0.185403 10.028222 1.826299 0.341933 -24.328636 5.315934 2.544418 32.027010 3.292182 0.179775 -17.477747 0.000000 0.000000 0.000000 -19.373094 6.249653 -6.695585 -57.415307 12.163762 -15.355231 -13.375512 -28.172601 4.416019 0.000000 0.000000 0.000000 4.880696 4.298599 2.089734 61.846318 11.583895 -1.800063 4.535765 44.987579 5.796156 0.000000 0.000000 0.000000 
0.102842 0.904861 0.295188 0.621277 10.530806 -5.017735 3.173601 -1.902330 -22.304177 -1.431308 -0.307498 11.597728 -3.382319 1.146531 13.692676 0.000000 0.000000 0.000000 4.193416 -2.571188 15.826762 -4.865575 2.006091 26.044271 2.326235 9.613421 -5.291911 0.000000 0.000000 0.000000 -5.037779 -0.114370 9.431304 2.275008 0.206264 -23.431443 4.891584 2.098807 31.795022 4.146213 -0.557434 -16.996822 0.000000 0.000000 0.000000 -19.250741 6.105289 -6.506318 -57.012622 11.598520 -14.920091 -11.613090 -28.097365 3.971998 0.000000 0.000000 0.000000 5.185796 4.207808 2.072376 63.029591 9.409275 -2.944077 3.433590 44.632662 5.295100 0.000000 0.000000 0.000000 
0.122159 0.911266 0.353242 1.810007 8.823141 -4.868556 1.473769 -2.050859 -21.512485 -1.492222 -0.547811 17.226062 -2.772396 1.227176 12.324295 0.000000 0.000000 0.000000 1.588139 -1.427026 10.984272 -3.199441 1.762523 38.234580 3.091418 5.760095 4.061741 0.000000 0.000000 0.000000 -7.177359 0.037207 9.177652 3.341666 -0.132268 -22.745080 4.704250 2.164077 31.524456 4.736009 -1.152995 -17.111689 0.000000 0.000000 0.000000 -19.644047 5.622949 -6.012244 -56.506501 8.999079 -13.561246 -10.514106 -27.584771 3.715979 0.000000 0.000000 0.000000 5.358876 3.436593 1.690816 63.582171 7.448049 -4.149799 5.881284 43.727324 5.961508 0.000000 0.000000 0.000000 
0.136381 0.922672 0.403992 2.604576 6.768700 -4.285213 1.577175 -1.607395 -18.131195 -3.295326 -0.032647 17.698041 -1.086584 2.403759 9.103839 0.000000 0.000000 0.000000 -1.315322 -0.389561 4.034990 -0.119226 0.534209 50.152599 3.250368 1.052711 13.910066 0.000000 0.000000 0.000000 -8.053271 0.139801 9.538100 3.705041 -0.269663 -22.708179 3.562955 0.603974 31.437870 4.309243 -1.370938 -16.858667 0.000000 0.000000 0.000000 -18.355174 4.658094 -4.437727 -56.379267 6.080533 -12.340785 -11.201449 -27.369313 4.070261 0.000000 0.000000 0.000000 6.363113 4.192013 1.879104 63.602226 6.231907 -5.317300 6.557045 42.650888 5.688657 0.000000 0.000000 0.000000 
0.145479 0.935487 0.448556 2.224736 4.332839 -4.632087 2.810236 -0.900473 -12.392496 -4.546187 0.435067 13.840593 -0.777075 2.821130 9.323020 0.000000 0.000000 0.000000 -2.365936 0.199315 -2.461672 4.414305 -1.823523 56.642494 -0.801152 -7.359149 16.071209 0.000000 0.000000 0.000000 -7.891226 0.193211 11.200440 3.631738 -0.306299 -22.589648 2.581662 -1.707353 31.224128 3.772499 -1.567756 -17.455023 0.000000 0.000000 0.000000 -17.771199 4.379428 -3.257939 -56.336214 2.940393 -10.993201 -11.329726 -29.166584 4.713109 0.000000 0.000000 0.000000 6.534198 4.506657 1.701514 64.817288 5.667579 -6.197792 6.329683 42.102791 5.117746 0.000000 0.000000 0.000000 
0.151220 0.947417 0.489975 1.597423 1.441457 -4.798282 4.039398 -0.370837 -6.322125 -4.823390 0.580429 9.170058 -0.398458 3.363674 9.724823 0.000000 0.000000 0.000000 -2.702242 0.662795 -8.508357 9.162051 -4.117826 57.334858 -4.993096 -14.482040 13.858655 0.000000 0.000000 0.000000 -7.445246 0.236818 12.705371 4.608942 -0.548145 -23.689134 1.106678 -3.262496 31.881643 3.623228 -1.984024 -17.926893 0.000000 0.000000 0.000000 -17.941765 3.690815 -2.083690 -54.583669 -0.882405 -9.184558 -11.676376 -30.772218 5.378501 0.000000 0.000000 0.000000 7.763529 4.666652 1.449296 64.519991 5.916652 -6.552263 6.750771 41.085471 4.747482 0.000000 0.000000 0.000000 
0.154874 0.954721 0.529737 0.619407 -1.492585 -4.964641 5.261538 -0.007560 -0.633705 -5.041033 0.640072 5.049057 0.521295 4.590025 9.455939 0.000000 0.000000 0.000000 -2.981950 1.070795 -13.718967 13.817144 -5.823468 52.991659 -7.109124 -18.199183 12.056060 0.000000 0.000000 0.000000 -6.140766 0.171338 13.779992 4.837237 -0.635423 -23.973928 0.154366 -4.811748 32.052457 3.147266 -2.310623 -16.437352 0.000000 0.000000 0.000000 -16.908925 3.178136 -1.028407 -53.713155 -4.537404 -7.553088 -10.698112 -32.303852 5.658404 0.000000 0.000000 0.000000 7.985644 5.095287 1.244237 64.900023 5.375964 -7.251292 6.878888 40.507699 4.302616 0.000000 0.000000 0.000000 
0.156925 0.955445 0.568728 0.048945 -4.437350 -4.913570 5.934206 0.240018 3.874567 -5.229858 0.675578 2.284577 1.899590 6.382127 8.070989 0.000000 0.000000 0.000000 -3.041034 1.503244 -18.178078 17.297902 -6.155325 44.984562 -9.504153 -22.494386 13.957942 0.000000 0.000000 0.000000 -5.085094 0.137508 15.476316 5.102191 -0.624065 -25.501319 -0.794202 -6.423245 32.362681 2.954166 -2.683942 -16.792168 0.000000 0.000000 0.000000 -15.231324 3.111321 -0.375577 -53.453868 -7.698860 -6.039865 -10.550205 -36.023261 6.720391 0.000000 0.000000 0.000000 7.635207 4.420314 0.591768 65.491037 4.596050 -8.146185 7.397229 39.266889 3.881945 0.000000 0.000000 0.000000 
